<?xml version="1.0" encoding="utf-8"?>
<!-- Generator: Adobe Illustrator 19.2.1, SVG Export Plug-In . SVG Version: 6.00 Build 0)  -->
<svg version="1.0" id="Capa_1" xmlns="http://www.w3.org/2000/svg" xmlns:xlink="http://www.w3.org/1999/xlink" x="0px" y="0px"
	 viewBox="0 0 120 128.3" style="enable-background:new 0 0 120 128.3;" xml:space="preserve">
<path d="M83.2,127.6c-9.1,0.1-17.4-3-25.2-7.3c-8.5-4.7-16-10.7-22.9-17.5c-8.3-8.3-16-17.1-22.2-27.1c-5-8-9.1-16.4-10.9-25.7
	c-2.4-12.2-1.1-23.9,5.9-34.6c1.6-2.4,3.6-4.4,5.7-6.5c1.9-1.9,4.1-3.5,6.1-5.3C24.8-0.6,30-0.5,34.6,4.6
	c4.9,5.5,8.8,11.7,11.8,18.4c0.8,1.8,1.2,3.8,1.4,5.8c0.5,4.3-1.1,7.9-4.5,10.6c-2.3,1.9-4.6,3.7-7,5.6c-4.7,3.7-5.9,7.3-4.2,13.1
	c1.3,4.3,3.7,8,6.3,11.6c5.2,7.5,11.4,14.1,18.7,19.7c2.7,2.1,5.7,3.8,9.2,4.3c4.7,0.7,8.3-1.4,11.5-4.5c1.4-1.4,2.8-2.8,4.3-4.1
	c4.9-4.2,10.3-4.6,16.1-2c0.8,0.4,1.7,0.8,2.4,1.4c5,4.2,10,8.5,14.9,12.9c1.8,1.6,3,3.7,3.5,6.1c0.6,2.5,0.3,4.9-1.4,6.7
	c-5.8,6-11.5,12.2-19.7,15C93,126.9,88.2,127.6,83.2,127.6z"/>
</svg>
