<?xml version="1.0" encoding="utf-8"?>
<!-- Generator: Adobe Illustrator 19.2.1, SVG Export Plug-In . SVG Version: 6.00 Build 0)  -->
<svg version="1.0" id="Capa_1" xmlns="http://www.w3.org/2000/svg" xmlns:xlink="http://www.w3.org/1999/xlink" x="0px" y="0px"
	 viewBox="0 0 85 118.6" style="enable-background:new 0 0 85 118.6;" xml:space="preserve">
<path d="M82.6,38c-3.1-16.5-12.8-27.7-29-32.1C37.1,1.4,22.8,6.2,11.8,19.3C0.2,33.3-0.2,52,10.4,68c7.1,10.8,14.3,21.4,21.5,32.2
	c3.6,5.4,7.3,10.8,11.2,16.6c0.3-0.5,0.4-0.8,0.6-1.1c11-16.5,22.2-32.9,33-49.5C82.3,57.7,84.5,48.1,82.6,38z M43,52.6
	c-4.4,0-8.1-3.8-8.1-8.2c0-4.3,3.6-8,7.9-8c4.4-0.1,8.1,3.6,8.2,8C51.1,48.8,47.4,52.6,43,52.6z"/>
</svg>
