<?xml version="1.0" encoding="utf-8"?>
<!-- Generator: Adobe Illustrator 19.2.1, SVG Export Plug-In . SVG Version: 6.00 Build 0)  -->
<svg version="1.0" id="Layer_1" xmlns="http://www.w3.org/2000/svg" xmlns:xlink="http://www.w3.org/1999/xlink" x="0px" y="0px"
	 viewBox="0 0 400 120" style="enable-background:new 0 0 400 120;" xml:space="preserve">
<g>
	<path d="M146.7,70.5c-2.8,0-4.9-0.8-6.5-2.3c-1.6-1.5-2.4-3.8-2.4-6.8V49.6h4.5v11.6c0,1.7,0.4,2.9,1.2,3.8
		c0.8,0.8,1.9,1.3,3.2,1.3c1.4,0,2.5-0.4,3.2-1.2c0.8-0.8,1.2-2.1,1.2-3.7V49.6h4.5v11.6c0,1.6-0.2,2.9-0.6,4.1
		c-0.4,1.2-1,2.1-1.8,2.9c-0.8,0.8-1.7,1.3-2.8,1.7C149.3,70.3,148,70.5,146.7,70.5z"/>
	<path d="M158.5,49.7h5l5.4,14.4l5.4-14.4h4.9l-8.3,20.6h-4L158.5,49.7z"/>
	<path d="M190.6,49.7h1.5l9.5,20.6h-1.7l-2.6-5.7h-12.1l-2.6,5.7H181L190.6,49.7z M196.7,63.3l-5.4-11.9l-5.4,11.9H196.7z"/>
	<path d="M205.9,49.8h8.6c1.3,0,2.4,0.2,3.4,0.5c1,0.4,1.8,0.9,2.4,1.5c0.5,0.5,0.9,1.1,1.1,1.7c0.3,0.7,0.4,1.4,0.4,2.1v0.1
		c0,0.9-0.1,1.6-0.4,2.3c-0.3,0.7-0.7,1.3-1.3,1.7c-0.5,0.5-1.2,0.9-1.9,1.2c-0.7,0.3-1.5,0.5-2.4,0.6l6.8,8.8h-1.9l-6.5-8.5h-0.1
		h-6.6v8.5h-1.5V49.8z M214.3,60.4c0.9,0,1.7-0.1,2.4-0.3c0.7-0.2,1.4-0.5,1.9-0.9c0.5-0.4,0.9-0.9,1.2-1.5c0.3-0.6,0.5-1.2,0.5-2
		v-0.1c0-1.4-0.5-2.5-1.5-3.3c-1-0.8-2.5-1.2-4.3-1.2h-7v9.3H214.3z"/>
	<path d="M243.1,68.2c-0.9,0.7-1.9,1.3-3,1.7c-1.1,0.4-2.3,0.6-3.6,0.6c-1.6,0-3-0.3-4.2-0.9c-1.3-0.6-2.3-1.3-3.2-2.3
		c-0.9-1-1.6-2.1-2.1-3.4c-0.5-1.3-0.7-2.6-0.7-4v-0.1c0-1.4,0.2-2.7,0.7-4c0.5-1.3,1.2-2.4,2.1-3.4c0.9-1,2-1.7,3.2-2.3
		c1.3-0.6,2.7-0.9,4.2-0.9c1.5,0,2.9,0.3,4.2,0.9c1.3,0.6,2.3,1.3,3.2,2.3c0.9,1,1.6,2.1,2.1,3.4c0.5,1.3,0.7,2.6,0.7,4
		c0,0,0,0,0,0.1c0,1.4-0.2,2.7-0.7,3.9c-0.5,1.2-1.1,2.3-2,3.3l2.9,2.5l-1.1,1.2L243.1,68.2z M236.5,69.1c1.1,0,2.1-0.2,3-0.5
		c0.9-0.3,1.7-0.8,2.5-1.4l-4-3.4l1.1-1.2l3.9,3.6c0.7-0.8,1.3-1.8,1.6-2.8c0.4-1.1,0.6-2.2,0.6-3.4v-0.1c0-1.3-0.2-2.5-0.7-3.6
		c-0.4-1.1-1-2.1-1.8-2.9c-0.8-0.8-1.7-1.5-2.8-2c-1.1-0.5-2.2-0.7-3.5-0.7s-2.4,0.2-3.5,0.7c-1.1,0.5-2,1.1-2.8,2
		c-0.8,0.8-1.4,1.8-1.8,2.9c-0.4,1.1-0.6,2.3-0.6,3.6v0.1c0,1.3,0.2,2.5,0.7,3.6c0.4,1.1,1,2.1,1.8,2.9c0.8,0.8,1.7,1.5,2.8,2
		C234.1,68.9,235.2,69.1,236.5,69.1z"/>
	<path d="M260,70.5c-1.2,0-2.4-0.2-3.4-0.6c-1-0.4-1.9-0.9-2.7-1.7c-0.8-0.8-1.3-1.7-1.7-2.8c-0.4-1.1-0.6-2.4-0.6-3.8v-12h1.5v11.8
		c0,2.4,0.6,4.3,1.8,5.6c1.2,1.3,2.9,2,5.1,2c1,0,2-0.2,2.8-0.5c0.8-0.3,1.6-0.8,2.2-1.4c0.6-0.6,1.1-1.4,1.4-2.3
		c0.3-0.9,0.5-2,0.5-3.3v-12h1.5v11.8c0,1.5-0.2,2.8-0.6,3.9c-0.4,1.1-1,2.1-1.7,2.8c-0.7,0.8-1.6,1.3-2.7,1.7
		C262.4,70.3,261.3,70.5,260,70.5z"/>
	<path d="M274.4,49.8h1.5v20.5h-1.5V49.8z"/>
	<path d="M287.9,51.2h-7.1v-1.4h15.8v1.4h-7.1v19.1h-1.5V51.2z"/>
	<path d="M301.2,49.8h14.6v1.4h-13.1v8.1h11.7v1.4h-11.7v8.3h13.2v1.4h-14.7V49.8z"/>
	<path d="M330.1,70.6c-1.5,0-2.8-0.3-4.1-0.8c-1.3-0.5-2.3-1.3-3.2-2.2c-0.9-0.9-1.6-2.1-2.1-3.4c-0.5-1.3-0.8-2.7-0.8-4.1V60
		c0-1.4,0.3-2.8,0.8-4.1c0.5-1.3,1.2-2.4,2.1-3.4c0.9-1,2-1.7,3.2-2.3c1.2-0.6,2.6-0.8,4.1-0.8c0.9,0,1.7,0.1,2.5,0.2
		c0.7,0.2,1.4,0.4,2.1,0.7c0.6,0.3,1.2,0.6,1.8,1c0.6,0.4,1.1,0.8,1.6,1.3l-1.1,1.1c-0.4-0.4-0.9-0.8-1.4-1.2
		c-0.5-0.4-1-0.7-1.6-0.9c-0.6-0.3-1.2-0.5-1.8-0.6c-0.7-0.2-1.4-0.2-2.1-0.2c-1.2,0-2.4,0.2-3.4,0.7c-1.1,0.5-2,1.1-2.7,1.9
		c-0.8,0.8-1.4,1.8-1.8,2.9c-0.4,1.1-0.7,2.3-0.7,3.6V60c0,1.3,0.2,2.5,0.7,3.6c0.4,1.1,1.1,2.1,1.8,2.9c0.8,0.8,1.7,1.5,2.7,2
		c1.1,0.5,2.2,0.7,3.4,0.7c1.5,0,2.8-0.3,3.9-0.8c1.1-0.5,2.2-1.3,3.2-2.4l1,1c-0.5,0.5-1.1,1-1.7,1.4c-0.6,0.4-1.2,0.8-1.8,1.1
		c-0.7,0.3-1.4,0.6-2.1,0.7C331.8,70.6,331,70.6,330.1,70.6z"/>
	<path d="M348.1,51.2H341v-1.4h15.8v1.4h-7.1v19.1h-1.5V51.2z"/>
	<path d="M370.8,70.6c-1.6,0-3-0.3-4.2-0.9c-1.3-0.6-2.3-1.3-3.2-2.3c-0.9-1-1.6-2.1-2.1-3.4c-0.5-1.3-0.7-2.6-0.7-4V60
		c0-1.4,0.3-2.7,0.7-4c0.5-1.3,1.2-2.4,2.1-3.4c0.9-1,2-1.7,3.3-2.3c1.3-0.6,2.7-0.9,4.2-0.9c1.5,0,2.9,0.3,4.2,0.9
		c1.3,0.6,2.4,1.3,3.3,2.3c0.9,1,1.6,2.1,2.1,3.4c0.5,1.3,0.7,2.6,0.7,4c0,0,0,0,0,0.1c0,1.4-0.2,2.8-0.7,4
		c-0.5,1.3-1.2,2.4-2.1,3.4c-0.9,1-2,1.7-3.3,2.3C373.7,70.4,372.3,70.6,370.8,70.6z M370.8,69.3c1.3,0,2.4-0.2,3.5-0.7
		c1.1-0.5,2-1.1,2.8-2c0.8-0.8,1.4-1.8,1.8-2.9c0.4-1.1,0.6-2.3,0.6-3.6V60c0-1.3-0.2-2.5-0.7-3.6c-0.4-1.1-1-2.1-1.8-2.9
		c-0.8-0.8-1.7-1.5-2.8-2c-1.1-0.5-2.2-0.7-3.5-0.7c-1.3,0-2.4,0.2-3.5,0.7c-1.1,0.5-2,1.1-2.8,2c-0.8,0.8-1.4,1.8-1.8,2.9
		c-0.4,1.1-0.6,2.3-0.6,3.6V60c0,1.3,0.2,2.5,0.7,3.6c0.4,1.1,1,2.1,1.8,2.9c0.8,0.8,1.7,1.5,2.8,2C368.4,69,369.5,69.3,370.8,69.3z
		"/>
	<path d="M393.2,70.6c-1.6,0-3.1-0.3-4.4-0.8c-1.3-0.5-2.6-1.4-3.8-2.5l1-1.1c0.6,0.5,1.1,1,1.7,1.4c0.6,0.4,1.1,0.7,1.7,0.9
		c0.6,0.2,1.2,0.4,1.8,0.6c0.6,0.1,1.3,0.2,2.1,0.2c0.8,0,1.5-0.1,2.1-0.3c0.6-0.2,1.2-0.5,1.6-0.8c0.4-0.4,0.8-0.8,1.1-1.3
		c0.3-0.5,0.4-1,0.4-1.6v-0.1c0-0.5-0.1-1-0.2-1.5c-0.2-0.4-0.5-0.8-0.9-1.2c-0.4-0.4-1-0.7-1.8-1c-0.7-0.3-1.7-0.5-2.9-0.8
		c-1.2-0.3-2.3-0.5-3.2-0.9c-0.9-0.3-1.6-0.7-2.2-1.2c-0.6-0.5-1-1-1.2-1.6c-0.3-0.6-0.4-1.3-0.4-2.1v-0.1c0-0.8,0.2-1.5,0.5-2.1
		c0.3-0.7,0.8-1.2,1.4-1.7c0.6-0.5,1.3-0.9,2.1-1.1c0.8-0.3,1.7-0.4,2.6-0.4c1.5,0,2.8,0.2,3.8,0.6c1.1,0.4,2.1,1,3.2,1.9l-1,1.2
		c-1-0.8-2-1.4-2.9-1.8c-1-0.4-2-0.5-3.2-0.5c-0.8,0-1.4,0.1-2.1,0.3c-0.6,0.2-1.1,0.5-1.6,0.8c-0.4,0.3-0.8,0.8-1,1.2
		c-0.2,0.5-0.4,1-0.4,1.5v0.1c0,0.5,0.1,1,0.2,1.5s0.5,0.8,0.9,1.2c0.4,0.4,1,0.7,1.8,1c0.8,0.3,1.8,0.6,3,0.8
		c2.4,0.5,4.1,1.2,5.2,2.1c1.1,0.9,1.6,2.1,1.6,3.6V65c0,0.8-0.2,1.6-0.5,2.3c-0.3,0.7-0.8,1.3-1.4,1.8c-0.6,0.5-1.3,0.9-2.1,1.1
		C395.1,70.5,394.2,70.6,393.2,70.6z"/>
	<path d="M87.4,30.7c-1.6,0-3,1.3-3,3v28.8c0,13.7-11.1,24.8-24.8,24.8c-13.7,0-24.8-11.1-24.8-24.8V47.8l-6-9.4v24.1
		c0,17,13.8,30.8,30.8,30.8c17,0,30.8-13.8,30.8-30.8V33.7C90.3,32.1,89,30.7,87.4,30.7z"/>
	<g>
		<path d="M59.6,119.6C26.7,119.6,0,92.9,0,60.1C0,27.2,26.7,0.5,59.6,0.5c32.8,0,59.5,26.7,59.5,59.6
			C119.1,92.9,92.4,119.6,59.6,119.6z M59.6,6.5C30,6.5,6,30.5,6,60.1c0,29.5,24,53.6,53.6,53.6c29.5,0,53.6-24,53.6-53.6
			C113.1,30.5,89.1,6.5,59.6,6.5z"/>
	</g>
	<g>
		<path d="M45.8,50.3L34.3,32.1c-0.9-1.4-2.7-1.8-4.1-0.9c-1.4,0.9-1.8,2.7-0.9,4.1l13.5,21.3L45.8,50.3z"/>
		<path d="M59.6,71.8l-6-9.4h-2.4l-2,4.2L57,78.9c0.5,0.9,1.5,1.4,2.5,1.4c1,0,2-0.5,2.5-1.4l20.2-31.7V36.1L59.6,71.8z"/>
	</g>
	<g>
		<path d="M70.9,50.2l-8.6-17.7c-0.5-1-1.5-1.7-2.7-1.7c-1.1,0-2.2,0.6-2.7,1.7L40.5,66c-0.7,1.5-0.1,3.3,1.4,4
			c1.5,0.7,3.3,0.1,4-1.4l4.1-8.3h14.5L70.9,50.2z M59.6,40.5l6.7,13.8H52.8L59.6,40.5z"/>
		<path d="M76.1,60.8l-3.8,5.9l0.9,1.9c0.5,1.1,1.6,1.7,2.7,1.7c0.4,0,0.9-0.1,1.3-0.3c1.5-0.7,2.1-2.5,1.4-4L76.1,60.8z"/>
	</g>
</g>
</svg>
